<mxfile host="app.diagrams.net" modified="2021-04-01T15:24:13.827Z" agent="5.0 (Windows)" etag="evtlXgZWgdnlDoRmi6KT" version="13.7.9" type="github">
  <diagram id="C5RBs43oDa-KdzZeNtuy" name="Page-1">
    <mxGraphModel dx="2062" dy="1124" grid="1" gridSize="10" guides="1" tooltips="1" connect="1" arrows="1" fold="1" page="1" pageScale="1" pageWidth="827" pageHeight="1169" math="0" shadow="0">
      <root>
        <mxCell id="WIyWlLk6GJQsqaUBKTNV-0" />
        <mxCell id="WIyWlLk6GJQsqaUBKTNV-1" parent="WIyWlLk6GJQsqaUBKTNV-0" />
        <mxCell id="qzIZwbefHzwZ-c147n1I-0" value="&lt;div style=&quot;font-size: 22px;&quot;&gt;начало&lt;/div&gt;" style="strokeWidth=1;html=1;shape=mxgraph.flowchart.terminator;whiteSpace=wrap;fontFamily=Times New Roman;labelBackgroundColor=none;fontSize=22;" vertex="1" parent="WIyWlLk6GJQsqaUBKTNV-1">
          <mxGeometry x="120" y="40" width="120" height="60" as="geometry" />
        </mxCell>
        <mxCell id="qzIZwbefHzwZ-c147n1I-1" value="ввод a,b" style="shape=parallelogram;perimeter=parallelogramPerimeter;whiteSpace=wrap;html=1;fixedSize=1;strokeWidth=1;fontFamily=Times New Roman;labelBackgroundColor=none;fontSize=22;" vertex="1" parent="WIyWlLk6GJQsqaUBKTNV-1">
          <mxGeometry x="120" y="150" width="120" height="60" as="geometry" />
        </mxCell>
        <mxCell id="qzIZwbefHzwZ-c147n1I-2" value="S := a*b" style="rounded=0;whiteSpace=wrap;html=1;strokeWidth=1;fontFamily=Times New Roman;labelBackgroundColor=none;fontSize=22;" vertex="1" parent="WIyWlLk6GJQsqaUBKTNV-1">
          <mxGeometry x="120" y="260" width="120" height="60" as="geometry" />
        </mxCell>
        <mxCell id="qzIZwbefHzwZ-c147n1I-3" value="вывод S" style="shape=parallelogram;perimeter=parallelogramPerimeter;whiteSpace=wrap;html=1;fixedSize=1;strokeWidth=1;fontFamily=Times New Roman;labelBackgroundColor=none;fontSize=22;" vertex="1" parent="WIyWlLk6GJQsqaUBKTNV-1">
          <mxGeometry x="120" y="370" width="120" height="60" as="geometry" />
        </mxCell>
        <mxCell id="qzIZwbefHzwZ-c147n1I-4" value="конец" style="strokeWidth=1;html=1;shape=mxgraph.flowchart.terminator;whiteSpace=wrap;fontFamily=Times New Roman;labelBackgroundColor=none;fontSize=22;" vertex="1" parent="WIyWlLk6GJQsqaUBKTNV-1">
          <mxGeometry x="120" y="480" width="120" height="60" as="geometry" />
        </mxCell>
        <mxCell id="qzIZwbefHzwZ-c147n1I-5" value="" style="endArrow=none;html=1;entryX=0.5;entryY=1;entryDx=0;entryDy=0;entryPerimeter=0;exitX=0.5;exitY=0;exitDx=0;exitDy=0;strokeWidth=1;fontFamily=Times New Roman;labelBackgroundColor=none;fontSize=22;" edge="1" parent="WIyWlLk6GJQsqaUBKTNV-1" source="qzIZwbefHzwZ-c147n1I-1" target="qzIZwbefHzwZ-c147n1I-0">
          <mxGeometry width="50" height="50" relative="1" as="geometry">
            <mxPoint x="280" y="160" as="sourcePoint" />
            <mxPoint x="330" y="110" as="targetPoint" />
          </mxGeometry>
        </mxCell>
        <mxCell id="qzIZwbefHzwZ-c147n1I-6" value="" style="endArrow=none;html=1;entryX=0.5;entryY=1;entryDx=0;entryDy=0;exitX=0.5;exitY=0;exitDx=0;exitDy=0;strokeWidth=1;fontFamily=Times New Roman;labelBackgroundColor=none;fontSize=22;" edge="1" parent="WIyWlLk6GJQsqaUBKTNV-1" source="qzIZwbefHzwZ-c147n1I-2" target="qzIZwbefHzwZ-c147n1I-1">
          <mxGeometry width="50" height="50" relative="1" as="geometry">
            <mxPoint x="320" y="240" as="sourcePoint" />
            <mxPoint x="370" y="190" as="targetPoint" />
          </mxGeometry>
        </mxCell>
        <mxCell id="qzIZwbefHzwZ-c147n1I-7" value="" style="endArrow=none;html=1;entryX=0.5;entryY=1;entryDx=0;entryDy=0;strokeWidth=1;fontFamily=Times New Roman;labelBackgroundColor=none;fontSize=22;" edge="1" parent="WIyWlLk6GJQsqaUBKTNV-1" source="qzIZwbefHzwZ-c147n1I-3" target="qzIZwbefHzwZ-c147n1I-2">
          <mxGeometry width="50" height="50" relative="1" as="geometry">
            <mxPoint x="280" y="400" as="sourcePoint" />
            <mxPoint x="172" y="321" as="targetPoint" />
          </mxGeometry>
        </mxCell>
        <mxCell id="qzIZwbefHzwZ-c147n1I-8" value="" style="endArrow=none;html=1;strokeWidth=1;fontFamily=Times New Roman;labelBackgroundColor=none;fontSize=22;" edge="1" parent="WIyWlLk6GJQsqaUBKTNV-1" source="qzIZwbefHzwZ-c147n1I-4" target="qzIZwbefHzwZ-c147n1I-3">
          <mxGeometry width="50" height="50" relative="1" as="geometry">
            <mxPoint x="280" y="490" as="sourcePoint" />
            <mxPoint x="173" y="430" as="targetPoint" />
          </mxGeometry>
        </mxCell>
      </root>
    </mxGraphModel>
  </diagram>
</mxfile>
